<svg width="22" height="22" xmlns="http://www.w3.org/2000/svg" xmlns:xlink="http://www.w3.org/1999/xlink" overflow="hidden"><defs><clipPath id="clip0"><rect x="1148" y="6" width="22" height="22"/></clipPath><clipPath id="clip1"><rect x="1149" y="6" width="21" height="21"/></clipPath><clipPath id="clip2"><rect x="1149" y="6" width="21" height="21"/></clipPath><clipPath id="clip3"><rect x="1149" y="6" width="21" height="21"/></clipPath></defs><g clip-path="url(#clip0)" transform="translate(-1148 -6)"><g clip-path="url(#clip1)"><g clip-path="url(#clip2)"><g clip-path="url(#clip3)"><path d="M1164.97 7.75 1153.16 7.75 1153.16 25.2415 1164.97 25.2415C1165.57 25.2421 1166.06 24.7527 1166.07 24.1477L1166.07 8.84375C1166.06 8.23878 1165.57 7.74939 1164.97 7.75ZM1153.59 8.1875 1154.96 8.1875 1154.96 24.804 1153.59 24.804ZM1165.63 24.1482C1165.63 24.5116 1165.33 24.8053 1164.97 24.8044L1155.4 24.8044 1155.4 8.1875 1164.97 8.1875C1165.33 8.18665 1165.63 8.4803 1165.63 8.84375Z" stroke="#FFFFFF" stroke-width="0.218704" fill="#FFFFFF"/><path d="M1157.53 13.4375 1163.66 13.4375 1163.66 13.875 1157.53 13.875Z" stroke="#FFFFFF" stroke-width="0.218704" fill="#FFFFFF"/><path d="M1158.84 15.8438 1162.34 15.8438 1162.34 16.2812 1158.84 16.2812Z" stroke="#FFFFFF" stroke-width="0.218704" fill="#FFFFFF"/></g></g></g></g></svg>