<svg width="20" height="20" xmlns="http://www.w3.org/2000/svg" xmlns:xlink="http://www.w3.org/1999/xlink" overflow="hidden"><defs><clipPath id="clip0"><rect x="1090" y="6" width="20" height="20"/></clipPath><clipPath id="clip1"><rect x="1091" y="6" width="19" height="19"/></clipPath><clipPath id="clip2"><rect x="1091" y="6" width="19" height="19"/></clipPath><clipPath id="clip3"><rect x="1091" y="6" width="19" height="19"/></clipPath></defs><g clip-path="url(#clip0)" transform="translate(-1090 -6)"><g clip-path="url(#clip1)"><g clip-path="url(#clip2)"><g clip-path="url(#clip3)"><path d="M1096.54 10.9479 1101.09 10.9479 1101.09 11.3438 1096.54 11.3438Z" fill="#FFFFFF"/><path d="M1096.54 13.9167 1101.09 13.9167 1101.09 14.3125 1096.54 14.3125Z" fill="#FFFFFF"/><path d="M1096.54 16.8854 1101.09 16.8854 1101.09 17.2812 1096.54 17.2812Z" fill="#FFFFFF"/><path d="M1096.54 19.8542 1101.09 19.8542 1101.09 20.25 1096.54 20.25Z" fill="#FFFFFF"/><path d="M1106.44 7.58333 1094.56 7.58333 1094.56 23.4167 1106.44 23.4167ZM1106.04 23.0208 1094.96 23.0208 1094.96 7.97917 1106.04 7.97917Z" fill="#FFFFFF"/><path d="M1104.46 10.2552 1102.68 10.2552 1102.68 12.0365 1104.46 12.0365ZM1104.06 11.6406 1103.07 11.6406 1103.07 10.651 1104.06 10.651Z" fill="#FFFFFF"/><path d="M1104.46 13.224 1102.68 13.224 1102.68 15.0052 1104.46 15.0052ZM1104.06 14.6094 1103.07 14.6094 1103.07 13.6198 1104.06 13.6198Z" fill="#FFFFFF"/><path d="M1104.46 16.1927 1102.68 16.1927 1102.68 17.974 1104.46 17.974ZM1104.06 17.5781 1103.07 17.5781 1103.07 16.5885 1104.06 16.5885Z" fill="#FFFFFF"/><path d="M1104.46 19.1615 1102.68 19.1615 1102.68 20.9427 1104.46 20.9427ZM1104.06 20.5469 1103.07 20.5469 1103.07 19.5573 1104.06 19.5573Z" fill="#FFFFFF"/></g></g></g></g></svg>